<svg
   viewBox="0 0 1900 1923.0769"
   version="1.1"
   xmlns="http://www.w3.org/2000/svg"
   xmlns:svg="http://www.w3.org/2000/svg">
  <path
     id="path2"
     d="m 1608.1648,0 c -20.0577,137.88448 -187.192,689.54217 -486.4033,849.58048 v 59.66275 C 1510.8188,716.18575 1661.7601,55.15379 1661.7601,0 Z m -281.8452,38.860252 c -30.5373,-5.113877 -62.2015,7.844656 -77.865,35.104244 L 978.02192,506.91683 815.0689,507.35021 c -10.44231,0 -20.88671,1.6054 -31.34825,5.77848 L 502.45333,623.49759 357.55804,403.62656 c -23.80767,-36.7692 -73.19586,-47.64387 -110.3689,-23.83621 -37.19227,23.8269 -48.07727,73.62925 -24.2696,110.80228 l 181.01077,274.1887 c 20.46152,31.74998 61.43536,45.9533 97.80071,30.91484 l 205.56929,-80.75419 v 285.45672 h 355.23179 v 59.3738 H 707.30031 l -278.23364,638.9551 c -21.3269,48.0576 1.98666,109.4025 51.71737,137.3832 49.73073,28.0192 107.07911,11.6725 127.55986,-36.4044 l 227.23858,-522.2298 c 20.05767,5.8654 41.86204,8.3788 63.99663,8.3788 20.46152,0 40.52631,-3.8534 58.50706,-10.5457 l 255.26423,-119.47 56.0512,225.2161 c 12.5384,50.1346 63.5569,80.7437 113.6915,68.186 50.1346,-12.5576 80.58,-63.1235 68.0416,-113.2581 l -88.1218,-353.49828 c -12.5384,-49.73071 -73.5587,-88.99983 -120.7702,-66.01909 l -179.7106,83.49898 V 669.86986 l 318.3941,-509.37268 c 23.4038,-37.19227 12.479,-86.56123 -25.1364,-110.368899 -9.2981,-5.850956 -19.2911,-9.563402 -29.4702,-11.268029 z M 860.71886,195.16804 c -78.15377,0 -141.71713,63.43813 -141.71713,141.57267 0,78.15377 63.56336,141.28373 141.71713,141.28373 78.11531,0 141.57264,-63.12996 141.57264,-141.28373 0,-78.13454 -63.45733,-141.57267 -141.57264,-141.57267 z m 201.81324,1090.68736 -59.8072,27.8812 v 609.3403 h 59.8072 z"
     style="stroke-width:19.2308" />
</svg>
