<svg xmlns="http://www.w3.org/2000/svg" viewBox="0 0 512 512" version="1">
    <path d="M228 507c-112-6-201-45-220-98-10-31 6-64 44-89a283 283 0 0 1 74-31c9 0 16 12 12 20-3 4-5 5-19 10-52 17-84 42-88 68 0 6 2 16 6 23 5 8 17 19 27 26 36 24 89 39 155 45 23 2 67 1 90-1 71-8 127-29 156-57 9-10 13-16 15-26 4-15-8-34-30-50-14-10-41-23-62-29-5-1-9-3-11-5-8-8-4-20 8-23 4-1 6-1 18 3 50 17 84 41 99 69 8 17 8 37 0 55-14 29-54 56-108 72-49 15-106 21-166 18zm23-97l-15-19a761 761 0 0 1-123-214 144 144 0 0 1 79-158c13-7 20-9 33-12s46-3 60-1c52 11 94 48 110 98 7 21 10 44 7 62-9 47-54 128-127 227-13 18-16 20-24 17zm33-148c42-11 74-45 84-88a116 116 0 0 0-83-132c-10-3-12-3-29-3s-19 0-28 2c-35 10-65 36-78 69-5 14-7 25-7 42 0 15 1 22 5 35 13 39 47 69 88 76 12 3 36 2 48-1zm-46-49c-11-3-18-8-27-17a62 62 0 0 1-19-48c1-17 7-29 19-41 13-13 26-19 45-19 18 0 32 6 45 18 6 7 9 10 12 17 9 19 9 38 0 57-8 16-23 28-40 33-10 3-25 3-35 0z"/>
  </svg>
