<svg xmlns="http://www.w3.org/2000/svg" viewBox="0 0 57.6 57.6" >
    <path d="M8.8 54.8c-.4-2.2-1.8-4-3.6-4.6l-1-.3v-4.5h15V33.8l3.4-3 6.2-5.1 2.7-2.3H36.2V20c0-3.4 0-3.5.6-2.9.4.3.7.5.8.4l2-7.5 1.8-7.3 1.8 7.4 2 7.6c0 .2.2 0 .6-.3.6-.5.6-.5.6 7.2v7.7h1.4c2.6 0 2.8.3 4 3.7l1.2 3.6c.1.2 0 .4-.5.4-.7 0-.7 0-.7 8v8H21.5l-.2-.9a9 9 0 0 0-2.5-4.4 4.3 4.3 0 0 0-4.6 0c-1.1.8-2.4 3.2-2.4 4.4 0 .9 0 .9-1.4.9S9 56 8.8 54.8zm38.9-9c0-1.7-.5-2.4-1.7-2.2-.6 0-.7.3-.8 2l-.1 1.8h2.6zm-7.4-3c0-2.6 0-2.8-.7-2.8-.5 0-.6-.1-.4-.6l2.4-7h1.3l1.4-.1c.2-.2-5.3-8.3-5.6-8.3L36 29l-2.6 4.9V45.2c0 .1 1.6.2 3.5.2h3.5v-2.7zm-15.7-2.6c0-1.9-.5-2.6-1.5-2.3-.6.2-.7.5-.7 2.1v2h2.2zm5.2 0c0-1.7-.4-2.4-1.4-2.4-.8 0-1.2 1-1.2 2.7v1.4h2.6z"/>
  </svg>
