<svg xmlns="http://www.w3.org/2000/svg" viewBox="0 0 1200 1200" >
    <path d="M933 1183a125904 125904 0 0 0-361-88l28-23c38-28 59-46 77-60a788 788 0 0 0 85-93l-66-12h-5l-12 11c-36 34-66 55-145 105-65 40-68 42-77 43-6 0-25-4-287-67L43 967c0-1 73-36 150-70 188-85 198-90 238-118 55-40 89-83 100-130 5-18 6-24 5-46 0-44-8-74-41-149-22-50-30-73-36-103-2-15-2-47 1-62 10-49 38-90 90-129 63-47 165-87 306-117 59-13 160-31 167-31l132 39 5 1-50 25a694 694 0 0 0-219 146c-24 25-37 44-43 66-3 14-3 32 0 46 5 19 15 37 31 59a962 962 0 0 0 102 102c60 52 91 86 117 131 61 106 62 229 4 360a745 745 0 0 1-137 200c-5 2-11 1-32-4zM803 814c4-2 6-7 9-20 5-19 6-39 4-60-4-38-16-81-36-130l-5-13-24 5-23 5 6 28 16 73c2 14 2 49 0 61a219 219 0 0 1-11 41 660 660 0 0 0 64 10zm-71-286l22-8-69-145-36 8a18432 18432 0 0 0 59 153l24-8zm-61-216l1-25a107 107 0 0 1 57-78c2-1-5-7-10-10-7-3-12-2-22 5-41 27-59 59-59 102l1 18v5h32v-17zm107-141l10-6 41-21c31-15 34-17 34-19s-1-3-4-4c-9-4-9-4-24 3-28 11-77 33-81 36-5 3-5 3-3 5l7 5c6 4 12 4 20 1zm127-67a2056 2056 0 0 1 56-25c0-2-2-3-6-5l-6-2-12 4-65 27 8 6c5 3 7 2 25-5zm92-39l51-23c1-1-5-5-7-5l-61 22c-8 3-10 5-6 7l11 4 12-5z"/>
  </svg>
