<svg xmlns="http://www.w3.org/2000/svg" viewBox="0 0 54.08 54">
    <path d="M1.28 48.08V42.8H9.6v2.56h2.56V22.32h10.88V42.2l1.04-.1 1.04-.1.16-11.6.16-11.6 2.86-2.24 2.85-2.24h5.65v24.32h2.24v-8.98l5.2.1 5.2.08.09 6.64.08 6.64h3.51v10.24H1.28zm20-3.68c0-.4-.65-.5-3.6-.57-3.45-.09-3.6-.06-3.6.57 0 .63.15.66 3.6.57 2.95-.07 3.6-.18 3.6-.57zm14.18.08c-.09-.45-.5-.58-2.1-.66-1.83-.08-2-.04-2 .56 0 .6.2.66 2.1.66 1.83 0 2.1-.07 2-.56zm-14.18-2.32c0-.4-.65-.5-3.6-.57-3.45-.09-3.6-.06-3.6.57 0 .63.15.66 3.6.57 2.95-.07 3.6-.18 3.6-.57zm14.24 0c0-.57-.21-.64-2.08-.64s-2.08.07-2.08.64c0 .57.21.64 2.08.64s2.08-.07 2.08-.64zm-14.24-2.24c0-.4-.65-.5-3.6-.57-2.87-.07-3.6 0-3.6.35 0 .8.42.88 3.82.79 2.75-.07 3.38-.18 3.38-.57zm14.18-.08c.1-.49-.17-.56-2-.56-1.54 0-2.1.11-2.1.43 0 .74.4.88 2.22.78 1.39-.07 1.8-.21 1.88-.65zm-14.08-2.4c-.1-.49-.58-.57-3.7-.65-3.44-.09-3.6-.06-3.6.56 0 .62.2.65 3.7.65 3.36 0 3.7-.05 3.6-.56zm14.08 0c-.09-.45-.5-.58-2.1-.66-1.83-.08-2-.04-2 .56 0 .6.2.66 2.1.66 1.83 0 2.1-.07 2-.56zM21.2 35.57c.11-.1.12-.4.02-.64-.13-.35-.96-.45-3.65-.45-3.28 0-3.49.04-3.49.64s.21.64 3.47.64c1.9 0 3.55-.09 3.65-.2zm14.32-.45c0-.57-.21-.64-2.08-.64s-2.08.07-2.08.64c0 .57.21.64 2.08.64s2.08-.07 2.08-.64zM20.8 33.36c.35-.11.64-.4.64-.66 0-.37-.7-.46-3.68-.46-2.85 0-3.68.1-3.68.43 0 .23.07.5.15.58.24.24 5.86.33 6.57.11zm14.66-.56c.1-.49-.17-.56-2-.56-1.54 0-2.1.11-2.1.43 0 .66.17.72 2.14.7 1.5-.02 1.87-.13 1.96-.57zm-14.08-2.4c-.1-.49-.58-.57-3.7-.65-3.44-.09-3.6-.06-3.6.56 0 .62.2.65 3.7.65 3.36 0 3.7-.05 3.6-.56zm14.08 0c-.09-.45-.5-.58-2.1-.66-1.83-.08-2-.04-2 .56 0 .6.2.66 2.1.66 1.83 0 2.1-.07 2-.56zm-14.18-2.32c0-.4-.65-.5-3.6-.57-3.45-.09-3.6-.06-3.6.57 0 .63.15.66 3.6.57 2.95-.07 3.6-.18 3.6-.57zm14.24 0c0-.57-.21-.64-2.08-.64s-2.08.07-2.08.64c0 .57.21.64 2.08.64s2.08-.07 2.08-.64zM21.3 25.76c.08-.5-.27-.56-3.57-.56-2.83 0-3.65.1-3.65.43 0 .78.43.87 3.8.78 2.9-.08 3.35-.16 3.42-.65zm14.16 0c.1-.49-.17-.56-2-.56-1.54 0-2.1.11-2.1.43 0 .7.3.8 2.18.74 1.45-.04 1.83-.16 1.92-.61zm0-2.4c-.09-.46-.45-.56-2.02-.56s-1.93.1-2.02.56c-.1.49.17.56 2.02.56s2.11-.07 2.02-.56zm.06-2.32c0-.57-.21-.64-2.08-.64s-2.08.07-2.08.64c0 .57.21.64 2.08.64s2.08-.07 2.08-.64zm-.06-2.32c.1-.49-.17-.56-2-.56-1.9 0-2.1.06-2.1.66 0 .6.17.64 2 .56 1.6-.08 2.01-.21 2.1-.66z"/>
  </svg>
