<?xml version="1.0" encoding="UTF-8" standalone="no"?>
<svg
   width="350"
   height="500"
   viewBox="0 0 349.99999 500.00001"
   version="1.1"
   id="svg24"
   xmlns="http://www.w3.org/2000/svg"
   xmlns:svg="http://www.w3.org/2000/svg">
  <defs
     id="defs28" />
  <path
     id="path2566"
     style="display:inline;fill:#000000;stroke-width:13.4765"
     d="m 174.92578,45.617188 c -67.04862,0 -121.478514,54.429892 -121.478514,121.478512 0,67.04863 54.429894,121.47657 121.478514,121.47657 67.04862,0 121.47656,-54.42794 121.47656,-121.47657 0,-67.04862 -54.42794,-121.478512 -121.47656,-121.478512 z m 0,7 c 63.26555,0 114.47656,51.212972 114.47656,114.478512 0,63.26556 -51.21101,114.47657 -114.47656,114.47657 -63.26555,0 -114.478514,-51.21101 -114.478514,-114.47657 0,-63.26554 51.212964,-114.478512 114.478514,-114.478512 z m -0.32422,252.875002 -0.4375,0.70117 c -0.87498,1.13747 -20.38672,27.91202 -20.38672,39.63672 -0.29385,11.79248 9.03157,21.58845 20.82422,21.875 v -0.0879 c 11.79265,-0.28655 21.11807,-10.08252 20.82422,-21.875 0,-11.72469 -19.50939,-38.49925 -20.29687,-39.63672 z m -69.90429,71.57422 17.69335,30.78125 c 3.57824,-0.25816 6.92083,-1.88017 9.3379,-4.53125 3.88623,-4.76175 11.16259,-4.76175 15.04882,0 5.56798,6.25393 15.34414,6.25393 20.91211,0 3.88413,-4.69205 11.07877,-4.69205 14.96289,0 5.57346,6.32006 15.42655,6.32006 21,0 3.88408,-4.69048 11.07687,-4.69048 14.96094,0 2.13574,2.34199 5.00302,3.88993 8.13281,4.39062 l 17.75,-30.64062 z m 70.51757,28.42187 c -4.01776,-4.5e-4 -7.84207,1.72534 -10.5,4.73828 -3.91763,4.69512 -11.13119,4.69512 -15.04882,0 -5.56212,-6.18843 -15.26211,-6.18843 -20.82422,0 -0.98047,1.13094 -2.20905,2.01996 -3.58985,2.59766 l 2.08594,3.6289 c 1.65524,-0.75848 3.14664,-1.83259 4.39063,-3.1621 3.91763,-4.69512 11.13119,-4.69512 15.04882,0 5.56798,6.25393 15.34414,6.25393 20.91211,0 3.91455,-4.62694 11.04835,-4.62694 14.96289,0 5.57346,6.32006 15.42655,6.32006 21,0 3.91447,-4.62541 11.04648,-4.62541 14.96094,0 0.96445,1.06742 2.08766,1.97983 3.33008,2.70507 l 2.12891,-3.67578 c -0.93886,-0.55482 -1.77852,-1.26246 -2.48438,-2.09375 -5.56785,-6.25247 -15.3423,-6.25247 -20.91016,0 -3.91461,4.62848 -11.05022,4.62848 -14.96484,0 -2.65748,-3.01243 -6.48096,-4.73817 -10.49805,-4.73828 z m 0,9.97461 c -4.01776,-4.5e-4 -7.84207,1.72533 -10.5,4.73828 -3.88623,4.76175 -11.16259,4.76175 -15.04882,0 -5.42026,-5.97146 -14.75188,-6.14044 -20.38477,-0.36914 l 2.16211,3.76367 c 0.0961,-0.0795 0.19119,-0.16019 0.28516,-0.24218 3.91763,-4.69512 11.13119,-4.69512 15.04882,0 5.56798,6.25393 15.34414,6.25393 20.91211,0 3.91455,-4.62694 11.04835,-4.62694 14.96289,0 5.57346,6.32006 15.42655,6.32006 21,0 3.72091,-4.2991 10.30743,-4.53965 14.33204,-0.52344 l 2.20898,-3.81055 c -5.74839,-4.96613 -14.40841,-4.44178 -19.51563,1.18164 -3.88418,4.69363 -11.08065,4.69363 -14.96484,0 -2.65748,-3.01244 -6.48096,-4.73817 -10.49805,-4.73828 z" />
</svg>
