<?xml version="1.0" encoding="UTF-8" standalone="no"?>
<svg
   width="350"
   height="500"
   viewBox="0 0 349.99999 500.00001"
   version="1.1"
   id="svg24"
   xmlns="http://www.w3.org/2000/svg"
   xmlns:svg="http://www.w3.org/2000/svg">
  <defs
     id="defs28" />
  <path
     id="circle6-6"
     style="color:#000000;display:inline;fill:#000000;-inkscape-stroke:none"
     d="m 174.92578,45.617188 c -67.04862,0 -121.478514,54.429892 -121.478514,121.478512 0,67.04863 54.429894,121.47657 121.478514,121.47657 67.04862,0 121.47656,-54.42794 121.47656,-121.47657 0,-67.04862 -54.42794,-121.478512 -121.47656,-121.478512 z m 0,7 c 63.26555,0 114.47656,51.212972 114.47656,114.478512 0,63.26556 -51.21101,114.47657 -114.47656,114.47657 -63.26555,0 -114.478514,-51.21101 -114.478514,-114.47657 0,-63.26554 51.212964,-114.478512 114.478514,-114.478512 z M 152.18555,294.76562 c -0.76215,10e-6 -1.13853,0.10308 -1.20703,0.3086 -0.0913,0.27403 -0.18319,3.65333 -0.0918,7.39844 v 6.9414 h 4.11133 v -14.61523 h -1.91797 c -0.34254,-0.0228 -0.64048,-0.0332 -0.89453,-0.0332 z m -26.05274,10.72071 c -0.715,0.29502 -1.34337,0.7668 -1.82617,1.37109 l -0.0918,0.0899 -1.27929,1.27929 5.02539,5.11524 c 1.71839,1.78906 3.54892,3.46694 5.48047,5.02343 1.11222,-0.72817 2.04829,-1.69494 2.74023,-2.83007 -3.07457,-3.6138 -6.43503,-6.97426 -10.04883,-10.04883 z m 54.16797,0 c -1.97032,1.47778 -3.80445,3.12889 -5.48047,4.93359 h 0.0898 c -1.72867,1.59208 -3.34577,3.3012 -4.83985,5.11524 0.73598,1.16153 1.73745,2.13155 2.92188,2.83007 3.62521,-3.09477 6.98644,-6.48605 10.04883,-10.13867 -0.54923,-1.21664 -1.5236,-2.19101 -2.74024,-2.74023 z m -27.32617,7.6914 c -0.88079,5.8e-4 -1.76071,0.0554 -2.63477,0.16407 h 0.0898 c -9.4725,1.20207 -17.139,8.28184 -19.08985,17.6289 -0.67948,2.85268 -0.67948,5.82506 0,8.67774 0.82911,4.33465 3.0022,8.29816 6.21094,11.32812 1.82688,1.82687 1.91828,1.91721 2.375,1.36914 l 1.55274,-2.1914 1.0957,-1.55274 -1.64258,-1.64453 c -5.01908,-5.24972 -6.12233,-13.11941 -2.74023,-19.54687 5.28938,-9.84703 18.51049,-11.93769 26.58007,-4.20313 l 1.82618,1.55274 1.64453,-1.55274 c 0.68425,-0.59777 1.29764,-1.27212 1.82812,-2.00976 0.18269,-0.6394 -4.20304,-4.20166 -6.94336,-5.48047 -3.12281,-1.67094 -6.61058,-2.54322 -10.15234,-2.53907 z m 33.87891,7.25586 c -0.73508,-0.0317 -1.47395,-0.0286 -2.21485,0.0117 -1.46392,0.0804 -2.91665,0.30211 -4.33789,0.66211 -3.84295,0.98976 -7.32702,3.04769 -10.04883,5.93555 -4.04009,3.88517 -6.4003,9.1965 -6.57617,14.79883 v 1.91797 h -2.2832 c -7.43961,0.14048 -14.24995,4.20573 -17.9043,10.6875 -6.17051,10.7894 -1.72517,24.54815 9.5918,29.6875 4.29316,1.91822 4.20133,1.91796 34.16211,1.91796 10.04823,0.45286 20.11465,0.30024 30.14453,-0.45703 4.90406,-0.97532 9.37736,-3.46785 12.78711,-7.125 7.67321,-7.74791 9.44693,-19.57217 4.38476,-29.23047 -3.16953,-5.96352 -8.59923,-10.40605 -15.07226,-12.33203 -2.3708,-0.68611 -4.84693,-0.93366 -7.30664,-0.73047 h -4.8418 l -0.54883,-1.64453 c -1.36487,-3.21461 -3.38739,-6.10802 -5.9375,-8.49414 -3.90889,-3.42018 -8.85255,-5.38383 -13.99804,-5.60547 z m -68.35938,12.51953 c -1.84096,0.0338 -3.68007,0.13483 -5.51367,0.30274 -0.36537,0.18269 -0.45659,0.91304 -0.36524,2.2832 l 0.0898,2.00977 h 6.94336 c 2.43691,0.23501 4.89433,0.14238 7.30664,-0.27539 0.36961,-0.60055 0.53029,-1.30646 0.45703,-2.00782 0,-1.2788 -0.18195,-1.73573 -0.63867,-2.00976 -2.75217,-0.25192 -5.51608,-0.35298 -8.2793,-0.30274 z m 14.94727,19.30079 c -1.93563,1.55245 -3.76645,3.23125 -5.48047,5.02539 l -5.02539,5.11523 0.91406,1.1875 c 1.82688,2.2836 2.10154,2.19143 7.2168,-2.92383 2.46628,-2.46627 4.7485,-4.74985 4.83984,-5.11523 0.27403,-0.45672 0.001,-0.91319 -0.91211,-1.91797 -0.4104,-0.5657 -0.94059,-1.03386 -1.55273,-1.37109 z m 37.92773,36.06836 c -0.0408,-0.003 -0.0771,0.002 -0.11133,0.0137 h 0.0898 c -1.11647,1.14659 -2.15401,2.36749 -3.10547,3.65429 l -2.74024,3.47071 3.19727,2.55664 5.8457,-7.30664 -1.46094,-1.1875 c -0.9591,-0.79926 -1.42885,-1.17994 -1.71484,-1.20117 z m 39.34375,0 c -0.0344,-0.003 -0.0631,0.002 -0.0859,0.0137 -1.08559,1.14947 -2.09305,2.3703 -3.01562,3.65429 l -2.74024,3.47071 3.19727,2.55664 5.8457,-7.30664 -1.55273,-1.1875 c -0.87918,-0.79926 -1.40741,-1.17994 -1.64844,-1.20117 z m -21.87891,7.40039 c -0.0143,0.002 -0.0276,0.006 -0.0391,0.0117 h 0.0879 c -0.0137,-7.2e-4 -0.0371,-0.0135 -0.0488,-0.0117 z m 0.0527,0.0117 c -1.11647,1.14658 -2.15401,2.36748 -3.10547,3.65429 l -2.74023,3.47071 3.19726,2.55664 5.8457,-7.30664 -1.55273,-1.1875 c -0.88639,-0.80582 -1.40626,-1.17202 -1.64453,-1.1875 z" />
</svg>
