<?xml version="1.0" encoding="UTF-8" standalone="no"?>
<svg
   width="350"
   height="500"
   viewBox="0 0 349.99999 500.00001"
   version="1.1"
   id="svg24"
   xmlns="http://www.w3.org/2000/svg"
   xmlns:svg="http://www.w3.org/2000/svg">
  <defs
     id="defs28" />
  <path
     id="circle6-9"
     style="color:#000000;display:inline;fill:#000000;-inkscape-stroke:none"
     d="m 174.92578,45.617188 c -67.04862,0 -121.478514,54.429892 -121.478514,121.478512 0,67.04863 54.429894,121.47657 121.478514,121.47657 67.04862,0 121.47656,-54.42794 121.47656,-121.47657 0,-67.04862 -54.42794,-121.478512 -121.47656,-121.478512 z m 0,7 c 63.26555,0 114.47656,51.212972 114.47656,114.478512 0,63.26556 -51.21101,114.47657 -114.47656,114.47657 -63.26555,0 -114.478514,-51.21101 -114.478514,-114.47657 0,-63.26554 51.212964,-114.478512 114.478514,-114.478512 z M 117.90039,306.9375 c -4.38155,3e-4 -7.94874,3.52308 -8.00391,7.9043 v 48.33203 c 6.6e-4,4.42015 3.58376,8.00324 8.00391,8.0039 h 70.54492 c 4.42092,4.2e-4 8.0052,-3.58299 8.00586,-8.0039 v -48.23242 c -3e-4,-4.38156 -3.52308,-7.94874 -7.90429,-8.00391 z m 118.67578,6.70312 -33.12109,14.10938 c -2.13538,0.31041 -3.64033,2.25769 -3.40235,4.40234 v 11.60743 c -0.2391,2.14537 1.26613,4.09387 3.40235,4.40429 l 33.12109,16.31055 c 2.17642,-0.26146 3.73762,-2.22494 3.50195,-4.4043 v -42.02539 c 0.23567,-2.17936 -1.32553,-4.14284 -3.50195,-4.4043 z" />
</svg>
