<?xml version="1.0" encoding="UTF-8" standalone="no"?>
<svg
   width="350"
   height="500"
   viewBox="0 0 349.99999 500.00001"
   version="1.1"
   id="svg24"
   xmlns="http://www.w3.org/2000/svg"
   xmlns:svg="http://www.w3.org/2000/svg">
  <defs
     id="defs28" />
  <path
     id="circle6"
     style="color:#000000;display:inline;fill:#000000;-inkscape-stroke:none"
     d="m 174.92578,45.617188 c -67.04862,0 -121.478514,54.429892 -121.478514,121.478512 0,67.04863 54.429894,121.47657 121.478514,121.47657 67.04862,0 121.47656,-54.42794 121.47656,-121.47657 0,-67.04862 -54.42794,-121.478512 -121.47656,-121.478512 z m 0,7 c 63.26555,0 114.47656,51.212972 114.47656,114.478512 0,63.26556 -51.21101,114.47657 -114.47656,114.47657 -63.26555,0 -114.478514,-51.21101 -114.478514,-114.47657 0,-63.26554 51.212964,-114.478512 114.478514,-114.478512 z m 5.20703,247.246092 c -2.64758,6.07299 -4.86655,12.32397 -6.64062,18.70703 -26.57683,1.514 -47.35352,23.50705 -47.35352,50.12696 0,26.61989 20.77669,48.61295 47.35352,50.12695 h 1.78125 c 1.61962,6.07357 3.64479,12.30955 6.07422,18.70703 h 6.15429 c -2.5104,-6.55945 -4.69708,-13.11889 -6.64062,-19.27344 24.63853,-3.57421 42.93674,-24.66419 43,-49.56054 -0.005,-10.16052 -3.11208,-20.07735 -8.90625,-28.42383 L 210.5,341.97461 c 5.54727,7.83031 8.64741,17.13006 8.9082,26.72266 -0.12755,22.77165 -16.89818,42.02234 -39.4375,45.26953 -8.14564,-29.62361 -8.6476,-60.82894 -1.45898,-90.69922 5.9425,0.65412 11.71064,2.41211 17.00781,5.18359 l 1.21485,-4.21289 c -5.35175,-2.8064 -11.16889,-4.61706 -17.16797,-5.34375 1.85028,-6.51714 4.20573,-12.88017 7.04492,-19.03125 z m 23.48438,19.43555 -6.31641,20.65039 20.89258,-5.26367 z" />
</svg>
