<?xml version="1.0" encoding="UTF-8" standalone="no"?>
<svg
   width="350"
   height="500"
   viewBox="0 0 349.99999 500.00001"
   version="1.1"
   id="svg24"
   xmlns="http://www.w3.org/2000/svg"
   xmlns:svg="http://www.w3.org/2000/svg">
  <defs
     id="defs28" />
  <path
     id="circle6-2"
     style="color:#000000;display:inline;fill:#000000;-inkscape-stroke:none"
     d="m 174.92578,45.617188 c -67.04862,0 -121.478514,54.429892 -121.478514,121.478512 0,67.04863 54.429894,121.47657 121.478514,121.47657 67.04862,0 121.47656,-54.42794 121.47656,-121.47657 0,-67.04862 -54.42794,-121.478512 -121.47656,-121.478512 z m 0,7 c 63.26555,0 114.47656,51.212972 114.47656,114.478512 0,63.26556 -51.21101,114.47657 -114.47656,114.47657 -63.26555,0 -114.478514,-51.21101 -114.478514,-114.47657 0,-63.26554 51.212964,-114.478512 114.478514,-114.478512 z M 130.29883,298.06836 c -0.29921,-0.002 -0.60296,0.0294 -0.91016,0.0996 -1.78521,0.40801 -3.05063,1.99689 -3.04883,3.82812 v 101.58203 c -9.9e-4,1.19389 0.54177,2.32326 1.47461,3.06836 2.57021,2.05292 6.37381,0.22108 6.3711,-3.06836 v -19.54687 h 15.27734 c 4.09368,-1.08626 4.09368,-6.89616 0,-7.98242 h -15.27734 v -37.43945 h 15.27734 c 4.50504,-0.83271 4.50504,-7.28839 0,-8.1211 h -15.27734 v -28.49219 c 0.002,-2.2058 -1.79224,-3.91182 -3.88672,-3.92773 z m 61.83398,9.8457 -0.82617,0.96485 c -1.2388,1.65172 -30.69336,42.11796 -30.69336,60.01171 -0.38509,17.81332 13.70778,32.58383 31.51953,33.03516 17.81252,-0.45027 31.90656,-15.2211 31.52149,-33.03516 0,-17.89375 -29.59519,-58.35999 -30.83399,-60.01171 z" />
</svg>
