<?xml version="1.0" encoding="UTF-8" standalone="no"?>
<svg viewBox="0 0 24 24">
  <path d="M 9 1 C 7.91 1 7 1.91 7 3 L 6 3 C 4.354992 3 3 4.354992 3 6 L 3 20 C 3 21.65 4.354992 23 6 23 L 18 23 C 19.65 23 21 21.65 21 20 L 21 18 A 1 1 0 0 0 20 17 A 1 1 0 0 0 19 18 L 19 20 C 19 20.564129 18.564129 21 18 21 L 6 21 C 5.4358712 21 5 20.564129 5 20 L 5 6 C 5 5.4358712 5.4358712 5 6 5 L 7 5 C 7 6.0907017 7.91 7 9 7 L 15 7 C 16.1 7 17 6.0907017 17 5 L 18 5 C 18.564129 5 19 5.4358712 19 6 L 19 10 A 1 1 0 0 0 20 11 A 1 1 0 0 0 21 10 L 21 6 C 21 4.354992 19.65 3 18 3 L 17 3 C 17 1.91 16.1 1 15 1 L 9 1 z M 9 3 L 15 3 L 15 5 L 9 5 L 9 3 z M 15 9 A 1 1 0 0 0 14.292969 9.2929688 L 10.292969 13.292969 A 1 1 0 0 0 10.134766 13.5 A 1 1 0 0 0 10 14 A 1 1 0 0 0 10.134766 14.5 A 1 1 0 0 0 10.292969 14.707031 L 14.292969 18.707031 A 1 1 0 0 0 15.707031 18.707031 A 1 1 0 0 0 15.707031 17.292969 L 13.414062 15 L 21 15 A 1 1 0 0 0 22 14 A 1 1 0 0 0 21 13 L 13.414062 13 L 15.707031 10.707031 A 1 1 0 0 0 15.707031 9.2929688 A 1 1 0 0 0 15 9 z " />
</svg>
