<?xml version="1.0" encoding="UTF-8" standalone="no"?>
<svg
   viewBox="0 0 22 22"
   version="1.1"
   id="svg4"
   xmlns="http://www.w3.org/2000/svg"
   xmlns:svg="http://www.w3.org/2000/svg">
  <defs
     id="defs8" />
  <path
     id="path2"
     d="M 11 0 A 1 1 0 0 0 10 1 L 10 3.0644531 C 6.3909834 3.518225 3.518225 6.3909834 3.0644531 10 L 1 10 A 1 1 0 0 0 0 11 A 1 1 0 0 0 1 12 L 3.0644531 12 C 3.518225 15.609017 6.3909834 18.481775 10 18.935547 L 10 21 A 1 1 0 0 0 11 22 A 1 1 0 0 0 12 21 L 12 18.935547 C 15.609017 18.481775 18.481775 15.609017 18.935547 12 L 21 12 A 1 1 0 0 0 22 11 A 1 1 0 0 0 21 10 L 18.935547 10 C 18.481775 6.3909834 15.609017 3.518225 12 3.0644531 L 12 1 A 1 1 0 0 0 11 0 z M 11 5 C 14.32555 5 17 7.6744502 17 11 C 17 14.32555 14.32555 17 11 17 C 7.6744502 17 5 14.32555 5 11 C 5 7.6744502 7.6744502 5 11 5 z M 11 6 A 1 1 0 0 0 10 7 L 10 7.1289062 C 9.634743 7.2240602 9.2903012 7.3700007 8.9726562 7.5585938 L 8.7070312 7.2929688 A 1 1 0 0 0 8 7 A 1 1 0 0 0 7.2929688 7.2929688 A 1 1 0 0 0 7.2929688 8.7070312 L 7.5585938 8.9726562 C 7.3700007 9.2903012 7.2240603 9.634743 7.1289062 10 L 7 10 A 1 1 0 0 0 6 11 A 1 1 0 0 0 7 12 L 7.1289062 12 C 7.2240563 12.365257 7.3700007 12.709699 7.5585938 13.027344 L 7.2929688 13.292969 A 1 1 0 0 0 7.2929688 14.707031 A 1 1 0 0 0 8.7070312 14.707031 L 8.9726562 14.441406 C 9.2903012 14.629999 9.634743 14.77594 10 14.871094 L 10 15 A 1 1 0 0 0 11 16 A 1 1 0 0 0 12 15 L 12 14.871094 C 12.365256 14.775944 12.709699 14.629999 13.027344 14.441406 L 13.292969 14.707031 A 1 1 0 0 0 14.707031 14.707031 A 1 1 0 0 0 14.707031 13.292969 L 14.441406 13.027344 C 14.629999 12.709699 14.77594 12.365257 14.871094 12 L 15 12 A 1 1 0 0 0 16 11 A 1 1 0 0 0 15 10 L 14.871094 10 C 14.77594 9.634743 14.629999 9.2903012 14.441406 8.9726562 L 14.707031 8.7070312 A 1 1 0 0 0 14.707031 7.2929688 A 1 1 0 0 0 14 7 A 1 1 0 0 0 13.292969 7.2929688 L 13.027344 7.5585938 C 12.709699 7.3700007 12.365256 7.2240603 12 7.1289062 L 12 7 A 1 1 0 0 0 11 6 z M 11 9 C 11.534948 9 12.014654 9.2049135 12.371094 9.5390625 A 1 1 0 0 0 12.412109 9.5878906 A 1 1 0 0 0 12.460938 9.6289062 C 12.795087 9.9853493 13 10.465052 13 11 C 13 11.534948 12.795088 12.014655 12.460938 12.371094 A 1 1 0 0 0 12.412109 12.412109 A 1 1 0 0 0 12.371094 12.460938 C 12.014655 12.795091 11.534948 13 11 13 C 10.475145 13 10.002757 12.803428 9.6484375 12.480469 A 1 1 0 0 0 9.5878906 12.412109 A 1 1 0 0 0 9.5371094 12.369141 C 9.2040854 12.012905 9 11.533939 9 11 C 9 10.465052 9.2049135 9.9853452 9.5390625 9.6289062 A 1 1 0 0 0 9.5878906 9.5878906 A 1 1 0 0 0 9.6484375 9.5195312 C 10.002753 9.1965672 10.475145 9 11 9 z " />
</svg>
