<?xml version="1.0" encoding="UTF-8" standalone="no"?>
<svg viewBox="0 0 22 22"
  xmlns="http://www.w3.org/2000/svg"
  xmlns:svg="http://www.w3.org/2000/svg">
  <path d="M 11,0 A 1,1 0 0 0 10,1 V 3.0644531 C 6.3909834,3.518225 3.518225,6.3909834 3.0644531,10 H 1 a 1,1 0 0 0 -1,1 1,1 0 0 0 1,1 H 3.0644531 C 3.518225,15.609017 6.3909834,18.481775 10,18.935547 V 21 a 1,1 0 0 0 1,1 1,1 0 0 0 1,-1 V 18.935547 C 15.609017,18.481775 18.481775,15.609017 18.935547,12 H 21 a 1,1 0 0 0 1,-1 1,1 0 0 0 -1,-1 H 18.935547 C 18.481775,6.3909834 15.609017,3.518225 12,3.0644531 V 1 A 1,1 0 0 0 11,0 Z m 0,5 c 3.32555,0 6,2.6744502 6,6 0,3.32555 -2.67445,6 -6,6 C 7.6744502,17 5,14.32555 5,11 5,7.6744502 7.6744502,5 11,5 Z" />
</svg>
