<?xml version="1.0" encoding="UTF-8" standalone="no"?>
<svg viewBox="0 0 100 100">
  <path d="M 50.001953 0 C 33.649351 0 20.25 13.360135 20.25 29.666016 C 20.25 35.983881 22.26819 41.854433 25.683594 46.681641 L 42.027344 74.9375 C 41.905281 75.037067 41.791848 75.141455 41.667969 75.240234 A 3.7486469 1.3418384 0 0 0 41.666016 75.242188 C 41.170945 75.637984 40.66503 76.027547 40.138672 76.410156 L 43.191406 76.949219 L 46.371094 82.445312 C 49.268309 86.230204 51.194531 85.511567 53.603516 82.246094 L 60.996094 69.664062 C 61.626337 69.782324 62.275682 69.919751 62.960938 70.095703 L 67.328125 67.916016 C 65.986943 67.571712 64.432865 67.221894 62.576172 66.974609 L 76.419922 43.414062 C 76.880887 42.580222 77.243244 41.691814 77.558594 40.785156 C 78.966959 37.345296 79.75 33.593364 79.75 29.666016 C 79.75 13.360135 66.354546 0 50.001953 0 z M 50.001953 13.900391 C 58.807349 13.900391 65.808584 20.885768 65.808594 29.666016 C 65.808594 38.446263 58.807349 45.429687 50.001953 45.429688 C 41.196548 45.429688 34.191406 38.446263 34.191406 29.666016 C 34.191406 20.885768 41.196548 13.900391 50.001953 13.900391 z M 73.416016 69.818359 L 68.140625 71.726562 C 68.548924 71.871362 68.96689 72.026022 69.40625 72.189453 C 72.312548 73.280059 75.071348 74.444356 77.787109 75.640625 L 83.605469 73.947266 C 80.82199 72.721168 77.935463 71.500637 74.820312 70.332031 A 3.7486469 1.3418384 0 0 0 74.806641 70.328125 C 74.366781 70.164513 73.908552 69.993027 73.416016 69.818359 z M 88.298828 76.070312 L 82.396484 77.726562 C 83.506285 78.233765 84.555395 78.735256 85.486328 79.244141 C 87.088639 80.118196 88.433751 81.020838 89.322266 81.947266 L 96.412109 81.076172 C 95.258249 79.873088 93.599173 78.778016 91.757812 77.773438 L 91.753906 77.773438 C 90.652141 77.171269 89.476035 76.608319 88.298828 76.070312 z M 36.697266 78.648438 C 36.28798 78.886171 35.85556 79.122532 35.408203 79.359375 L 35.412109 79.359375 C 33.120453 80.571074 30.414749 81.695085 27.429688 82.728516 C 27.005833 82.875271 26.577765 83.020797 26.148438 83.162109 L 31.224609 85.136719 C 31.705163 84.978548 32.174086 84.81906 32.638672 84.658203 C 35.948158 83.512454 38.998661 82.250801 41.619141 80.865234 L 37.916016 79.966797 L 41.619141 80.863281 C 42.115175 80.60066 42.603731 80.332198 43.078125 80.056641 L 36.697266 78.648438 z M 90.402344 84.138672 C 90.401419 84.256736 90.386902 84.381273 90.357422 84.511719 C 90.216725 85.138367 89.710567 85.763166 88.894531 86.326172 A 3.7486469 1.3418384 0 0 0 88.890625 86.330078 C 88.060346 86.906195 86.888998 87.447239 85.494141 87.933594 L 90.722656 89.855469 C 92.598227 89.201498 94.285744 88.4397 95.552734 87.560547 C 96.823384 86.683101 97.605575 85.71972 97.828125 84.728516 C 97.870425 84.54133 97.898891 84.347128 97.900391 84.146484 L 90.402344 84.138672 z M 20.652344 84.822266 C 17.622616 85.668514 14.389993 86.461566 11.09375 87.269531 A 3.7486469 1.3418384 0 0 0 11.083984 87.271484 C 10.262063 87.47429 9.416144 87.68319 8.5625 87.902344 L 12.933594 90.082031 C 13.703726 89.884314 14.505242 89.687414 15.328125 89.484375 L 15.337891 89.482422 C 18.632309 88.674902 21.99547 87.850908 25.265625 86.9375 L 20.652344 84.822266 z M 80.210938 89.367188 C 79.032406 89.623075 77.798325 89.858685 76.523438 90.078125 C 73.597774 90.580438 70.504869 90.990447 67.320312 91.333984 L 69.482422 93.902344 C 72.95857 93.527351 76.417298 93.071375 79.767578 92.496094 A 3.7486469 1.3418384 0 0 0 79.771484 92.496094 C 81.232186 92.244672 82.680509 91.969803 84.097656 91.662109 L 80.210938 89.367188 z M 1.9472656 90.226562 C 1.4635264 90.583991 1.1131836 91.042126 1.3691406 91.580078 C 1.6707392 92.223093 2.6417788 92.640181 3.4492188 92.916016 A 3.7486469 1.3418384 0 0 0 3.4609375 92.919922 C 4.5474865 93.288319 5.6770949 93.515048 6.6230469 93.691406 A 3.7486469 1.3418384 0 0 0 6.6503906 93.695312 C 8.4899056 94.031397 10.327759 94.271217 12.060547 94.480469 A 3.7486469 1.3418384 0 0 0 12.085938 94.482422 C 13.166439 94.609924 14.320476 94.745592 15.576172 94.859375 L 17.417969 92.257812 C 16.49297 92.174003 15.509533 92.061654 14.457031 91.9375 C 12.854419 91.743967 11.374241 91.546066 10.072266 91.308594 C 9.3790721 91.178874 8.8838854 91.061791 8.6152344 90.970703 L 8.625 90.974609 C 8.511178 90.935719 8.6685624 90.968401 8.7558594 91.130859 C 8.8316994 91.294956 8.7259225 91.371907 8.6953125 91.394531 L 1.9472656 90.226562 z M 60.351562 91.974609 C 55.635911 92.339574 50.835916 92.588355 45.998047 92.740234 L 46.652344 95.414062 C 51.770372 95.253388 56.881089 94.988843 61.935547 94.597656 L 60.351562 91.974609 z M 24.302734 92.697266 L 23.439453 95.363281 C 28.403215 95.569185 33.366628 95.621909 38.275391 95.582031 A 3.7486469 1.3418384 0 0 0 38.292969 95.580078 L 38.945312 95.574219 L 38.738281 92.892578 L 38.105469 92.898438 C 33.457599 92.936188 28.839255 92.885449 24.302734 92.697266 z " />
</svg>
