<?xml version="1.0" encoding="UTF-8" standalone="no"?>
<svg viewBox="0 0 22 22"
  xmlns="http://www.w3.org/2000/svg"
  xmlns:svg="http://www.w3.org/2000/svg">
  <path d="m 1,0 a 1,1 0 0 0 -0.7070312,0.2929688 1,1 0 0 0 0,1.4140624 L 4.7382812,6.1523438 C 3.8711956,7.2464419 3.2652674,8.5588642 3.0703125,10 H 1 a 1,1 0 0 0 -1,1 1,1 0 0 0 1,1 H 3.0644531 C 3.5175864,15.611384 6.3886161,18.482414 10,18.935547 V 21 a 1,1 0 0 0 1,1 1,1 0 0 0 1,-1 v -2.070312 c 1.441136,-0.194955 2.753558,-0.800884 3.847656,-1.667969 l 4.445313,4.445312 a 1,1 0 0 0 1.414062,0 1,1 0 0 0 0,-1.414062 L 1.7070312,0.2929688 A 1,1 0 0 0 1,0 Z M 11,0 A 1,1 0 0 0 10,1 V 3.0644531 C 9.57548,3.1195262 9.158413,3.209448 8.7519531,3.3320312 A 1,1 0 0 0 8.0820312,4.578125 1,1 0 0 0 9.328125,5.2480469 C 9.866143,5.0857876 10.429503,5 11,5 c 3.330806,0 6,2.6691937 6,6 0,0.570497 -0.08579,1.133857 -0.248047,1.671875 a 1,1 0 0 0 0.669922,1.246094 1,1 0 0 0 1.246094,-0.669922 C 18.790552,12.841587 18.880474,12.42452 18.935547,12 H 21 a 1,1 0 0 0 1,-1 1,1 0 0 0 -1,-1 H 18.935547 C 18.482414,6.3886161 15.611384,3.5175864 12,3.0644531 V 1 A 1,1 0 0 0 11,0 Z M 6.1621094,7.5761719 14.423828,15.837891 C 13.437195,16.566806 12.265805,17 11,17 7.6691937,17 5,14.330806 5,11 5,9.734195 5.4331934,8.5628049 6.1621094,7.5761719 Z" />
</svg>
