<?xml version="1.0" encoding="UTF-8" standalone="no"?>
<svg viewBox="0 0 22 22">
  <path d="M 5.9965324,0 C 5.124354,0 4.2513174,0.3284837 3.5902824,0.9863282 a 1.0001,1.0001 0 0 0 0,0.00195 L 0.98871992,3.5898438 a 1.0001,1.0001 0 0 0 -0.00195,0 c -1.31568909,1.3220699 -1.31568909,3.4904301 0,4.8125 a 1.0001,1.0001 0 0 0 0.00195,0 L 13.590282,21.003906 c 1.320473,1.322877 3.494838,1.322299 4.814453,-0.002 l 2.597656,-2.597656 0.002,-0.002 c 1.322211,-1.31981 1.322211,-3.49269 0,-4.8125 l -1.800781,-1.800781 -3,-3.0000004 -3,-3 -3,-3 -1.8008276,-1.8006873 a 1.0001,1.0001 0 0 0 0,-0.00195 C 7.7417474,0.3284806 6.8687108,10e-8 5.9965324,0 Z m 0,1.9882813 c 0.3568663,0 0.7133027,0.1375504 0.9921875,0.4140625 l 1.09375,1.09375 -1.2929687,1.2929688 a 1,1 0 0 0 0,1.4140624 1,1 0 0 0 1.4140624,0 L 9.4965324,4.9101563 11.08247,6.4960938 9.7895014,7.7890626 a 1,1 0 0 0 0,1.4140622 1,1 0 0 0 1.4140616,0 l 1.292969,-1.2929685 1.585938,1.5859375 -1.292969,1.2929692 a 1,1 0 0 0 0,1.414062 1,1 0 0 0 1.414062,0 l 1.292969,-1.292969 1.585938,1.585938 -1.292969,1.292969 a 1,1 0 0 0 0,1.414062 1,1 0 0 0 1.414062,0 l 1.292969,-1.292969 1.09375,1.09375 c 0.557508,0.555576 0.557508,1.4288 0,1.984376 l -2.601562,2.601562 c -0.555576,0.557508 -1.4288,0.557508 -1.984376,0 L 2.4047355,6.9902344 l -0.00195,-0.00195 c -0.5530242,-0.5577696 -0.5530242,-1.4266054 0,-1.984375 l 0.00195,-0.00195 L 5.0023887,2.4043 5.0043387,2.40235 C 5.2832359,2.1258255 5.6396661,1.9882813 5.9965324,1.9882813 Z" />
</svg>
