<?xml version="1.0" encoding="UTF-8" standalone="no"?>
<svg viewBox="0 0 20 20">
  <path d="M 3 0 C 1.3549949 0 0 1.3549949 0 3 L 0 17 C 0 18.64499 1.3549768 20 3 20 L 11.003906 20 L 17 20 C 18.645008 20 20 18.645008 20 17 L 20 3 C 20 1.3549768 18.64499 0 17 0 L 11.003906 0 L 3 0 z M 3 2 L 10.003906 2 L 10.003906 18 L 3 18 C 2.4358255 18 2 17.564148 2 17 L 2 3 C 2 2.4358073 2.4358073 2 3 2 z M 12.003906 2 L 17 2 C 17.564148 2 18 2.4358255 18 3 L 18 17 C 18 17.56413 17.56413 18 17 18 L 12.003906 18 L 12.003906 2 z M 14.607422 7.0019531 A 1 1 0 0 0 13.882812 7.2480469 A 1 1 0 0 0 13.789062 8.6582031 L 14.962891 10 L 13.789062 11.341797 A 1 1 0 0 0 13.882812 12.751953 A 1 1 0 0 0 15.292969 12.658203 L 17.042969 10.658203 A 1.0001 1.0001 0 0 0 17.042969 9.3417969 L 15.292969 7.3417969 A 1 1 0 0 0 14.607422 7.0019531 z " />
</svg>
