<?xml version="1.0" encoding="UTF-8" standalone="no"?>
<svg viewBox="0 0 19.5 19.5">
  <path d="m 16.75,19.5 c 1.509898,0 2.75,-1.240102 2.75,-2.75 v -14 C 19.5,1.240083 18.259885,0 16.75,0 h -4.5 -9.5 C 1.240096,0 0,1.240096 0,2.75 v 14 c 0,1.509885 1.240083,2.75 2.75,2.75 h 9.5 z m 0,-1.5 H 13 V 1.5 h 3.75 C 17.449253,1.5 18,2.050719 18,2.75 v 14 C 18,17.44924 17.44924,18 16.75,18 Z M 11.5,18 H 2.75 C 2.050719,18 1.5,17.449253 1.5,16.75 v -14 C 1.5,2.050706 2.050706,1.5 2.75,1.5 h 8.75 z m 3.050781,-5.501953 a 0.75,0.75 0 0 0 0.513672,-0.253906 l 1.75,-2 a 0.750075,0.750075 0 0 0 0,-0.988282 l -1.75,-2 A 0.75,0.75 0 0 0 14.005859,7.185547 0.75,0.75 0 0 0 13.935549,8.244141 L 15.253906,9.75 13.935547,11.255859 a 0.75,0.75 0 0 0 0.07031,1.058594 0.75,0.75 0 0 0 0.544922,0.183594 z" />
</svg>
