<?xml version="1.0" encoding="UTF-8" standalone="no"?>
<svg
   width="350"
   height="500"
   viewBox="0 0 349.99999 500.00001"
   version="1.1"
   id="svg24"
   sodipodi:docname="model.svg"
   inkscape:version="1.2.2 (b0a8486541, 2022-12-01)"
   xml:space="preserve"
   xmlns:inkscape="http://www.inkscape.org/namespaces/inkscape"
   xmlns:sodipodi="http://sodipodi.sourceforge.net/DTD/sodipodi-0.dtd"
   xmlns="http://www.w3.org/2000/svg"
   xmlns:svg="http://www.w3.org/2000/svg"><sodipodi:namedview
     id="namedview15"
     pagecolor="#ffffff"
     bordercolor="#666666"
     borderopacity="1.0"
     inkscape:pageshadow="2"
     inkscape:pageopacity="0.0"
     inkscape:pagecheckerboard="0"
     showgrid="false"
     inkscape:zoom="1.4484489"
     inkscape:cx="39.352441"
     inkscape:cy="265.45638"
     inkscape:window-width="1680"
     inkscape:window-height="998"
     inkscape:window-x="1920"
     inkscape:window-y="0"
     inkscape:window-maximized="1"
     inkscape:current-layer="svg24"
     inkscape:showpageshadow="2"
     inkscape:deskcolor="#d1d1d1"
     showguides="true"
     inkscape:lockguides="true"><sodipodi:guide
       position="9.5080623,394.36977"
       orientation="1,0"
       id="guide7149"
       inkscape:locked="true" /><sodipodi:guide
       position="340.49193,332.78924"
       orientation="1,0"
       id="guide7151"
       inkscape:locked="true" /><sodipodi:guide
       position="174.93114,498.19466"
       orientation="0,-1"
       id="guide7153"
       inkscape:locked="true" /><sodipodi:guide
       position="-28.802741,169.98892"
       orientation="0,-1"
       id="guide7207"
       inkscape:locked="true" /><sodipodi:guide
       position="340.49193,332.78924"
       orientation="0,-1"
       id="guide7211"
       inkscape:locked="true" /><sodipodi:guide
       position="174.93114,498.19467"
       orientation="1,0"
       id="guide8140"
       inkscape:locked="true" /></sodipodi:namedview><defs
     id="defs28"><clipPath
       clipPathUnits="userSpaceOnUse"
       id="clipPath1028"><g
         id="g1032"><path
           id="path1030"
           data-name="Path 2636"
           d="m 5.955,69.403 a 8.472,8.472 0 1 1 -6.019,2.481 8.5,8.5 0 0 1 6.019,-2.481 z"
           fill="#ffffff"
           stroke="#223263"
           stroke-width="0.5" /></g></clipPath></defs><path
     data-name="Path 2570"
     d="M 174.32616,498.19466 31.474809,249.68721 a 165.49195,165.49195 0 1 1 309.017131,-82.47644 168.05249,168.05249 0 0 1 -24.39255,86.24987 z"
     fill="#67cdfd"
     id="path2"
     inkscape:label="marker"
     style="display:inline;fill:#000000;stroke-width:13.4765" /><path
     id="path8194"
     style="display:inline;fill:#00ff00;stroke-width:7;stroke-miterlimit:8"
     inkscape:label="circle-disabled"
     d="M 340.21484,167.09534 A 165.29001,165.29001 0 0 1 174.92484,332.38535 165.29001,165.29001 0 0 1 9.6348267,167.09534 165.29001,165.29001 0 0 1 174.92484,1.8053284 165.29001,165.29001 0 0 1 340.21484,167.09534 Z" /><path
     id="path7279-2"
     style="display:none;fill:#ff00ff;stroke-width:7;stroke-miterlimit:8"
     inkscape:label="circle-fill"
     d="M 292.90241,167.09534 A 117.97758,117.97758 0 0 1 174.92484,285.07291 117.97758,117.97758 0 0 1 56.947258,167.09534 117.97758,117.97758 0 0 1 174.92484,49.11776 117.97758,117.97758 0 0 1 292.90241,167.09534 Z" /><path
     style="color:#000000;display:inline;fill:#223263;stroke-miterlimit:8;-inkscape-stroke:none"
     d="m 174.92578,45.617187 c -67.04869,0 -121.478514,54.429823 -121.478514,121.478513 0,67.04869 54.429824,121.47657 121.478514,121.47657 67.04869,0 121.47656,-54.42788 121.47656,-121.47657 0,-67.04869 -54.42787,-121.478512 -121.47656,-121.478513 z m 0,7 c 63.26561,10e-7 114.47656,51.212903 114.47656,114.478513 0,63.26562 -51.21095,114.47657 -114.47656,114.47657 -63.26561,0 -114.478514,-51.21095 -114.478514,-114.47657 0,-63.26561 51.212904,-114.478512 114.478514,-114.478513 z"
     id="path7279"
     inkscape:label="circle-stroke" /><path
     id="path7279-06"
     style="color:#000000;display:none;fill:#223263;stroke-miterlimit:8;-inkscape-stroke:none"
     inkscape:label="user"
     d="m 174.92578,45.617188 c -67.04862,0 -121.478514,54.429892 -121.478514,121.478512 0,67.04863 54.429894,121.47657 121.478514,121.47657 67.04862,0 121.47656,-54.42794 121.47656,-121.47657 0,-67.04862 -54.42794,-121.478512 -121.47656,-121.478512 z m 0,7 c 63.26555,0 114.47656,51.212972 114.47656,114.478512 0,63.26556 -51.21101,114.47657 -114.47656,114.47657 -63.26555,0 -114.478514,-51.21101 -114.478514,-114.47657 0,-63.26554 51.212964,-114.478512 114.478514,-114.478512 z m 1.16211,41.363281 c -23.82983,-0.650113 -44.43332,18.477411 -44.52148,43.277341 -0.0853,24.04756 19.38588,43.58706 43.43359,43.58594 22.31847,-0.002 41.00292,-16.91837 43.21484,-39.12695 2.21194,-22.20858 -12.76875,-42.479032 -34.64843,-46.882816 -2.51511,-0.50614 -5.01336,-0.786262 -7.47852,-0.853515 z m -39.72851,96.447261 c -21.3399,-1.2e-4 -38.639677,17.29878 -38.64063,38.63868 v 4.79297 c 8.02e-4,8.02365 6.50564,14.52762 14.5293,14.52734 h 125.5039 c 8.0229,-8e-4 14.52655,-6.50445 14.52735,-14.52734 v -4.79297 c -9.5e-4,-21.3399 -17.30073,-38.6388 -38.64063,-38.63868 h -16.53711 c -13.97498,6.45124 -30.07579,6.45124 -44.05078,0 z" /><path
     id="path7279-6"
     style="color:#000000;display:none;fill:#223263;stroke-miterlimit:8;-inkscape-stroke:none"
     inkscape:label="met"
     d="m 174.92578,45.617188 c -67.04862,0 -121.478514,54.429892 -121.478514,121.478512 0,67.04863 54.429894,121.47657 121.478514,121.47657 67.04862,0 121.47656,-54.42794 121.47656,-121.47657 0,-67.04862 -54.42794,-121.478512 -121.47656,-121.478512 z m 0,7 c 63.26555,0 114.47656,51.212972 114.47656,114.478512 0,63.26556 -51.21101,114.47657 -114.47656,114.47657 -63.26555,0 -114.478514,-51.21101 -114.478514,-114.47657 0,-63.26554 51.212964,-114.478512 114.478514,-114.478512 z m -33.14453,38.011718 c -1.10971,0 -1.65806,0.149973 -1.75781,0.449219 -0.133,0.398996 -0.2658,5.31855 -0.13282,10.771485 v 10.10742 H 145.875 V 90.677734 h -2.79297 c -0.49874,-0.03325 -0.93088,-0.04883 -1.30078,-0.04883 z m -37.93359,15.609374 c -1.04148,0.42931 -1.95682,1.11616 -2.66016,1.9961 l -0.13281,0.13281 -1.861331,1.86133 7.314451,7.44921 c 2.50226,2.60501 5.16781,5.04811 7.98047,7.31446 1.61983,-1.06089 2.98293,-2.46937 3.99024,-4.12305 -4.47651,-5.26158 -9.36928,-10.15435 -14.63086,-14.63086 z m 78.86914,0 c -2.86911,2.15169 -5.53991,4.55581 -7.98047,7.1836 h 0.13281 c -2.51761,2.31782 -4.87278,4.80613 -7.04883,7.44726 1.07173,1.69228 2.53047,3.10549 4.25586,4.12305 5.2783,-4.50657 10.17218,-9.44487 14.63086,-14.76367 -0.7997,-1.77167 -2.21856,-3.19053 -3.99023,-3.99024 z m -39.78516,11.19727 c -1.28371,0.002 -2.56608,0.0827 -3.83984,0.24218 h 0.13476 c -13.79277,1.74956 -24.95617,12.05797 -27.79687,25.66797 -0.98931,4.15349 -0.98931,8.48128 0,12.63477 1.20748,6.31067 4.37141,12.08093 9.04297,16.49219 2.65996,2.65996 2.79398,2.79213 3.45898,1.99414 l 2.25977,-3.19141 1.5957,-2.26172 -2.39258,-2.39258 c -7.30907,-7.644 -8.91562,-19.10373 -3.99023,-28.46289 7.70228,-14.33825 26.95431,-17.38111 38.70312,-6.11718 l 2.6582,2.25976 2.39454,-2.25976 c 0.99569,-0.87032 1.88824,-1.852 2.66015,-2.92579 0.26599,-0.93098 -6.11747,-6.11849 -10.10742,-7.98046 -4.54645,-2.4336 -9.62444,-3.70443 -14.78125,-3.69922 z m 49.33008,10.5664 c -1.07024,-0.0461 -2.14784,-0.0411 -3.22656,0.0176 -2.13224,0.1165 -4.24822,0.43897 -6.31836,0.96289 -5.59553,1.44181 -10.66827,4.439 -14.63086,8.64453 -5.8823,5.65611 -9.31916,13.38853 -9.57617,21.54493 v 2.79296 h -3.32422 c -10.83185,0.20463 -20.74751,6.12342 -26.06836,15.56055 -8.98379,15.70909 -2.51189,35.7412 13.96484,43.22461 6.25092,2.79297 6.1187,2.79297 49.74219,2.79297 14.6296,0.65974 29.28572,0.43799 43.88867,-0.66406 7.14129,-1.41923 13.65555,-5.04806 18.62109,-10.37305 11.17204,-11.28154 13.75401,-28.49808 6.38282,-42.56055 -4.61454,-8.68233 -12.5194,-15.15046 -21.94336,-17.95508 -3.45252,-0.99951 -7.05853,-1.36026 -10.64063,-1.06445 h -7.04883 l -0.79882,-2.39258 c -1.98692,-4.68103 -4.93156,-8.89441 -8.64454,-12.36914 -5.69124,-4.97964 -12.88722,-7.83928 -20.3789,-8.16211 z m -99.535158,18.22852 c -2.68088,0.0488 -5.359103,0.19538 -8.029296,0.43945 -0.53199,0.266 -0.666203,1.3312 -0.533204,3.32617 l 0.132813,2.92579 h 10.107422 c 3.548739,0.34318 7.127493,0.20918 10.640623,-0.39844 0.53929,-0.87556 0.77349,-1.90505 0.66602,-2.92774 0,-1.86198 -0.26665,-2.52678 -0.93164,-2.92578 -4.00655,-0.36628 -8.030155,-0.51298 -12.052738,-0.43945 z m 21.761718,28.10351 c -2.81851,2.25955 -5.48448,4.70303 -7.98047,7.31446 l -7.314451,7.44922 1.330081,1.72851 c 2.65996,3.32496 3.05794,3.19206 10.50586,-4.25586 3.59095,-3.59095 6.91583,-6.91527 7.04882,-7.44726 0.39901,-0.665 -8e-5,-1.32999 -1.33007,-2.79297 -0.59728,-0.82347 -1.36888,-1.50503 -2.25977,-1.9961 z m 55.22461,52.51563 c -0.0595,-0.004 -0.11419,0.003 -0.16406,0.0195 h 0.13281 c -1.62554,1.66932 -3.13617,3.44683 -4.52148,5.32031 l -3.99024,5.05274 4.65625,3.72461 8.51172,-10.64063 -2.12891,-1.72851 c -1.39647,-1.16375 -2.07969,-1.71714 -2.49609,-1.74805 z m 57.2832,0 c -0.0501,-0.004 -0.0917,0.003 -0.125,0.0195 -1.57989,1.67359 -3.04606,3.45099 -4.38867,5.32031 l -3.99023,5.05274 4.65625,3.72461 8.51172,-10.64063 -2.26172,-1.72851 c -1.28012,-1.16375 -2.0514,-1.71714 -2.40235,-1.74805 z m -31.78515,10.77344 c -0.0501,-0.004 -0.0917,0.003 -0.125,0.0195 h 0.13281 c -1.62615,1.66863 -3.13742,3.44549 -4.52344,5.31836 l -3.98828,5.05468 4.6543,3.72461 8.51172,-10.64062 -2.26172,-1.72852 c -1.28011,-1.16374 -2.04945,-1.71713 -2.40039,-1.74804 z" /><path
     id="path1388-6"
     style="color:#000000;display:none;fill:#223263;-inkscape-stroke:none"
     inkscape:label="hyd"
     d="m 174.92578,45.617188 c -67.04862,0 -121.478514,54.429892 -121.478514,121.478512 0,67.04863 54.429894,121.47657 121.478514,121.47657 67.04862,0 121.47656,-54.42794 121.47656,-121.47657 0,-67.04862 -54.42794,-121.478512 -121.47656,-121.478512 z m 0,7 c 63.26555,0 114.47656,51.212972 114.47656,114.478512 0,63.26556 -51.21101,114.47657 -114.47656,114.47657 -63.26555,0 -114.478514,-51.21101 -114.478514,-114.47657 0,-63.26554 51.212964,-114.478512 114.478514,-114.478512 z m -54.04687,44.761718 c -0.39984,-0.0031 -0.80827,0.04098 -1.21875,0.134766 -2.38543,0.545295 -4.07635,2.668278 -4.07422,5.115238 v 137.11132 c -9e-4,0.78838 0.17601,1.56681 0.51758,2.27735 1.06081,2.20457 3.50544,3.3823 5.89062,2.83789 2.3862,-0.54452 4.0781,-2.6677 4.07617,-5.11524 v -26.21289 h 20.43164 c 3.01185,-0.0444 5.43164,-2.49954 5.43164,-5.51172 0,-3.01217 -2.41979,-5.4654 -5.43164,-5.50976 h -20.43164 v -50.4082 h 20.43164 c 3.00683,0 5.44532,-2.43849 5.44532,-5.44532 0,-3.00682 -2.43849,-5.44336 -5.44532,-5.44336 h -20.43164 v -38.58007 c 0.003,-2.947423 -2.39255,-5.228623 -5.1914,-5.250004 z m 83.15625,13.316404 -0.94141,1.34375 c -1.7475,2.28519 -41.53516,56.8602 -41.53516,80.92188 -0.45075,23.95209 18.52745,43.77151 42.47657,44.35937 v 0.13477 c 24.00354,-0.58661 43.00452,-20.4892 42.47851,-44.49414 0,-24.1961 -39.78926,-78.63669 -41.40234,-80.92188 z" /><path
     id="path1388-7"
     style="color:#000000;display:none;fill:#223263;-inkscape-stroke:none"
     inkscape:label="cam"
     d="m 174.92578,45.617188 c -67.04862,0 -121.478514,54.429892 -121.478514,121.478512 0,67.04863 54.429894,121.47657 121.478514,121.47657 67.04862,0 121.47656,-54.42794 121.47656,-121.47657 0,-67.04862 -54.42794,-121.478512 -121.47656,-121.478512 z m 0,7 c 63.26555,0 114.47656,51.212972 114.47656,114.478512 0,63.26556 -51.21101,114.47657 -114.47656,114.47657 -63.26555,0 -114.478514,-51.21101 -114.478514,-114.47657 0,-63.26554 51.212964,-114.478512 114.478514,-114.478512 z M 91.648438,124.29492 c -6.396934,-4.2e-4 -11.605274,5.14263 -11.685547,11.53906 v 70.55274 c 8.2e-5,6.45371 5.231836,11.68547 11.685547,11.68555 H 194.62891 c 6.4537,-9e-5 11.68546,-5.23185 11.68554,-11.68555 v -70.40625 c 4.2e-4,-6.39693 -5.14263,-11.60528 -11.53906,-11.68555 z m 173.240232,9.78711 -48.34961,20.5957 c -3.11778,0.45309 -5.31492,3.29649 -4.96679,6.42774 v 16.94336 c -0.34812,3.13123 1.84902,5.97464 4.96679,6.42773 l 48.34961,23.8086 c 3.17605,-0.3811 5.4552,-3.24529 5.11328,-6.42578 v -61.34961 c 0.34307,-3.18122 -1.93639,-6.04666 -5.11328,-6.42774 z" /><path
     id="path7279-0"
     style="color:#000000;display:none;fill:#ff0000;stroke-miterlimit:8;-inkscape-stroke:none"
     inkscape:label="mf"
     d="m 174.92578,45.617188 c -67.04862,0 -121.478514,54.429892 -121.478514,121.478512 0,67.04863 54.429894,121.47657 121.478514,121.47657 67.04862,0 121.47656,-54.42794 121.47656,-121.47657 0,-67.04862 -54.42794,-121.478512 -121.47656,-121.478512 z m 0,7 c 2.50883,0 4.99051,0.108949 7.45899,0.267578 -3.9006,9.276084 -7.23702,18.780385 -9.95313,28.470703 -45.31709,2.570729 -80.748046,40.067111 -80.748046,85.457031 0,45.38993 35.430956,82.88826 80.748046,85.45898 h 3.03711 c 2.50335,9.38758 5.61054,19.01541 9.25,28.85743 -3.23089,0.27346 -6.49083,0.44336 -9.79297,0.44336 -63.26555,0 -114.478514,-51.21101 -114.478514,-114.47657 0,-63.26554 51.212964,-114.478512 114.478514,-114.478512 z m 17.96484,1.412109 c 54.71647,8.61144 96.51172,55.914833 96.51172,113.066403 0,56.51015 -40.86974,103.36838 -94.68164,112.73828 -3.60476,-9.72597 -6.83991,-19.39447 -9.72461,-28.52929 42.00449,-6.09301 73.19867,-42.04822 73.30664,-84.49219 -0.009,-17.32203 -5.30682,-34.22806 -15.18554,-48.45703 l -7.5918,2.89844 c 9.45689,13.3498 14.74162,29.20461 15.18555,45.55859 -0.21778,38.82127 -28.80922,71.63998 -67.23438,77.17578 -13.88628,-50.50312 -14.74033,-103.70167 -2.48437,-154.624999 10.13009,1.115245 19.9621,4.111525 28.99219,8.835938 l 2.07031,-7.179688 c -9.12353,-4.784774 -19.04031,-7.872025 -29.26758,-9.111328 2.73684,-9.510269 6.12548,-18.818541 10.10351,-27.878906 z m 30.89844,28.568359 -10.76758,35.205074 35.61914,-8.97265 z" /><path
     id="path7279-7"
     style="color:#000000;display:none;fill:#223263;stroke-miterlimit:8;-inkscape-stroke:none"
     inkscape:label="nph"
     d="m 174.92578,45.617188 c -67.04862,0 -121.478514,54.429892 -121.478514,121.478512 0,67.04863 54.429894,121.47657 121.478514,121.47657 67.04862,0 121.47656,-54.42794 121.47656,-121.47657 0,-67.04862 -54.42794,-121.478512 -121.47656,-121.478512 z m 0,7 c 63.26555,0 114.47656,51.212972 114.47656,114.478512 0,5.11407 -0.369,10.13837 -1.01757,15.07422 H 61.464844 c -0.648595,-4.93585 -1.017578,-9.96015 -1.017578,-15.07422 0,-63.26554 51.212964,-114.478512 114.478514,-114.478512 z m -0.32812,11.376953 -0.72461,1.154297 c -1.44471,1.878113 -33.66016,46.088252 -33.66016,65.447262 -0.48487,19.47134 14.91312,35.64496 34.38477,36.11719 v -0.14453 c 19.47085,-0.47333 34.86769,-16.64857 34.38281,-36.11914 0,-19.35901 -32.21735,-63.565249 -33.51758,-65.443361 z M 115.55273,219.62891 c 5.00759,-0.21248 9.88006,1.93538 13.10157,5.88281 9.19343,10.32577 25.33586,10.32577 34.52929,0 6.41316,-7.74573 18.28998,-7.74573 24.70313,0 9.20247,10.4349 25.47136,10.4349 34.67383,0 6.41315,-7.74573 18.28997,-7.74573 24.70312,0 4.3928,4.96678 10.70724,7.80734 17.33789,7.80078 1.37592,-0.0431 2.73562,-0.24178 4.07813,-0.52734 -2.25477,3.21357 -4.67112,6.30265 -7.23633,9.26172 -3.55587,-0.63579 -6.8383,-2.38468 -9.26758,-5.1211 -9.19343,-10.32576 -25.33391,-10.32576 -34.52734,0 -6.46335,7.63825 -18.23978,7.63825 -24.70313,0 -4.38831,-4.97588 -10.70337,-7.82652 -17.33789,-7.82617 -6.6338,2.3e-4 -12.94809,2.85082 -17.33594,7.82617 -6.46857,7.75337 -18.38103,7.75337 -24.8496,0 -9.18376,-10.21764 -25.19906,-10.21764 -34.382818,0 -2.646715,3.07682 -6.345804,5.00988 -10.332031,5.4668 -2.806264,-3.21114 -5.439017,-6.57508 -7.876953,-10.08789 8.273825,2.16613 17.150434,-0.35651 22.976562,-6.79297 2.42215,-2.96785 5.82684,-4.97133 9.59766,-5.64649 0.71647,-0.12833 1.43306,-0.20597 2.14843,-0.23632 z m 0.002,16.55078 c 4.99042,-0.20936 9.84832,1.90346 13.09961,5.80078 9.19343,10.32577 25.33586,10.32577 34.52929,0 6.46335,-7.63824 18.23979,-7.63824 24.70313,0 9.20247,10.43491 25.47136,10.43491 34.67383,0 6.46334,-7.63825 18.23978,-7.63825 24.70312,0 2.40003,2.66147 5.39906,4.67632 8.71485,5.98242 -1.5373,1.54081 -3.1273,3.02698 -4.75,4.47852 -9.31842,-9.33033 -24.68869,-9.0334 -33.58008,0.95312 -6.41316,7.74573 -18.29193,7.74573 -24.70508,0 -4.38832,-4.97588 -10.70142,-7.82652 -17.33594,-7.82617 -6.6338,2.3e-4 -12.94809,2.85082 -17.33594,7.82617 -6.41671,7.8634 -18.43289,7.8634 -24.8496,0 -9.08237,-10.10484 -24.83456,-10.19814 -34.064458,-0.31641 -1.759725,-1.5475 -3.485172,-3.13179 -5.146484,-4.7832 3.667478,-1.27974 6.986172,-3.41249 9.595702,-6.31445 2.44497,-2.93085 5.84707,-4.90335 9.60547,-5.56836 0.71398,-0.1263 1.42966,-0.20251 2.14258,-0.23242 z m 0,16.61328 c 4.99042,-0.20935 9.84832,1.90542 13.09961,5.80273 9.19343,10.32577 25.33586,10.32577 34.52929,0 6.46335,-7.63824 18.23979,-7.63824 24.70313,0 9.20247,10.43491 25.47136,10.43491 34.67383,0 5.98166,-7.04323 16.49565,-7.56465 23.15625,-1.54492 -19.47783,15.34453 -44.04713,24.52149 -70.79102,24.52149 -26.43384,0 -50.74411,-8.96399 -70.11328,-23.98829 2.33993,-2.34759 5.31307,-3.97512 8.59961,-4.55664 0.71398,-0.12629 1.42966,-0.20446 2.14258,-0.23437 z" /><path
     id="path7279-67"
     style="color:#000000;display:inline;fill:#223263;stroke-miterlimit:8;-inkscape-stroke:none"
     inkscape:label="sal"
     d="M 174.92578 45.617188 C 107.87716 45.617188 53.447266 100.04708 53.447266 167.0957 C 53.447266 234.14433 107.87716 288.57227 174.92578 288.57227 C 241.9744 288.57227 296.40234 234.14433 296.40234 167.0957 C 296.40234 100.04708 241.9744 45.617188 174.92578 45.617188 z M 171.48633 52.703125 L 171.48633 99.550781 C 163.53886 110.35181 140.24875 143.20151 138.86133 160.33398 L 210.9668 160.33398 C 209.5833 143.23536 186.41938 110.48787 178.40625 99.615234 L 178.40625 52.705078 C 240.05469 54.54706 289.40234 104.99752 289.40234 167.0957 C 289.40234 184.80468 285.38497 201.56617 278.21875 216.52734 A 22.653018 22.266052 0 0 0 273.00195 220.74414 A 15.712099 15.4437 0 0 1 248.77344 220.74414 A 22.526307 22.141506 0 0 0 215.15234 220.74414 A 15.712099 15.4437 0 0 1 190.9375 220.74414 A 22.526307 22.141506 0 0 0 157.31641 220.74414 A 15.712099 15.4437 0 0 1 133.09961 220.74414 A 22.526307 22.141506 0 0 0 116.28906 213.3418 A 22.526307 22.141506 0 0 0 99.478516 220.74414 A 15.69802 15.429862 0 0 1 75.263672 220.74414 A 22.653018 22.266052 0 0 0 72.458984 218.17188 C 64.785778 202.79609 60.447266 185.46095 60.447266 167.0957 C 60.447266 104.98376 109.81869 54.523944 171.48633 52.703125 z M 139.20117 167.25195 A 36.201362 36.201362 0 0 0 174.92773 198.08984 A 36.201362 36.201362 0 0 0 210.63281 167.25195 L 139.20117 167.25195 z M 116.31836 226.13086 A 15.712099 15.4437 0 0 1 128.42773 231.73242 A 22.526307 22.141506 0 0 0 162.04688 231.73242 A 15.712099 15.4437 0 0 1 186.26172 231.73242 A 22.526307 22.141506 0 0 0 219.88281 231.73242 A 15.712099 15.4437 0 0 1 244.09961 231.73242 A 22.62486 22.238375 0 0 0 260.91016 239.13477 A 22.62486 22.238375 0 0 0 264.07617 238.91211 C 260.80051 242.97446 257.24941 246.79985 253.45703 250.37695 A 15.69802 15.429862 0 0 1 248.77344 246.60742 A 22.526307 22.141506 0 0 0 215.15234 246.60742 A 15.69802 15.429862 0 0 1 190.9375 246.60742 A 22.526307 22.141506 0 0 0 157.31641 246.60742 A 15.69802 15.429862 0 0 1 133.09961 246.60742 A 22.526307 22.141506 0 0 0 116.28906 239.20508 A 22.526307 22.141506 0 0 0 99.478516 246.60742 A 15.69802 15.429862 0 0 1 95.791016 249.80078 C 92.273589 246.43456 88.964196 242.85684 85.898438 239.06836 A 22.526307 22.141506 0 0 0 104.21094 231.73242 A 15.712099 15.4437 0 0 1 116.31836 226.13086 z M 116.3457 251.85547 A 15.712099 15.4437 0 0 1 128.45312 257.45703 A 22.526307 22.141506 0 0 0 162.07422 257.45703 A 15.712099 15.4437 0 0 1 186.29102 257.45703 A 22.526307 22.141506 0 0 0 219.91211 257.45703 A 15.712099 15.4437 0 0 1 244.12695 257.45703 A 22.62486 22.238375 0 0 0 244.59375 257.93359 C 225.29848 272.74904 201.15606 281.57227 174.92578 281.57227 C 148.30889 281.57227 123.8461 272.48258 104.41211 257.26953 A 15.712099 15.4437 0 0 1 116.3457 251.85547 z " /><path
     id="path2566"
     style="display:none;fill:#000080;stroke-width:13.4765"
     inkscape:label="cluster-nph"
     d="m 174.92578,45.617188 c -67.04862,0 -121.478514,54.429892 -121.478514,121.478512 0,67.04863 54.429894,121.47657 121.478514,121.47657 67.04862,0 121.47656,-54.42794 121.47656,-121.47657 0,-67.04862 -54.42794,-121.478512 -121.47656,-121.478512 z m 0,7 c 63.26555,0 114.47656,51.212972 114.47656,114.478512 0,63.26556 -51.21101,114.47657 -114.47656,114.47657 -63.26555,0 -114.478514,-51.21101 -114.478514,-114.47657 0,-63.26554 51.212964,-114.478512 114.478514,-114.478512 z m -0.32422,252.875002 -0.4375,0.70117 c -0.87498,1.13747 -20.38672,27.91202 -20.38672,39.63672 -0.29385,11.79248 9.03157,21.58845 20.82422,21.875 v -0.0879 c 11.79265,-0.28655 21.11807,-10.08252 20.82422,-21.875 0,-11.72469 -19.50939,-38.49925 -20.29687,-39.63672 z m -69.90429,71.57422 17.69335,30.78125 c 3.57824,-0.25816 6.92083,-1.88017 9.3379,-4.53125 3.88623,-4.76175 11.16259,-4.76175 15.04882,0 5.56798,6.25393 15.34414,6.25393 20.91211,0 3.88413,-4.69205 11.07877,-4.69205 14.96289,0 5.57346,6.32006 15.42655,6.32006 21,0 3.88408,-4.69048 11.07687,-4.69048 14.96094,0 2.13574,2.34199 5.00302,3.88993 8.13281,4.39062 l 17.75,-30.64062 z m 70.51757,28.42187 c -4.01776,-4.5e-4 -7.84207,1.72534 -10.5,4.73828 -3.91763,4.69512 -11.13119,4.69512 -15.04882,0 -5.56212,-6.18843 -15.26211,-6.18843 -20.82422,0 -0.98047,1.13094 -2.20905,2.01996 -3.58985,2.59766 l 2.08594,3.6289 c 1.65524,-0.75848 3.14664,-1.83259 4.39063,-3.1621 3.91763,-4.69512 11.13119,-4.69512 15.04882,0 5.56798,6.25393 15.34414,6.25393 20.91211,0 3.91455,-4.62694 11.04835,-4.62694 14.96289,0 5.57346,6.32006 15.42655,6.32006 21,0 3.91447,-4.62541 11.04648,-4.62541 14.96094,0 0.96445,1.06742 2.08766,1.97983 3.33008,2.70507 l 2.12891,-3.67578 c -0.93886,-0.55482 -1.77852,-1.26246 -2.48438,-2.09375 -5.56785,-6.25247 -15.3423,-6.25247 -20.91016,0 -3.91461,4.62848 -11.05022,4.62848 -14.96484,0 -2.65748,-3.01243 -6.48096,-4.73817 -10.49805,-4.73828 z m 0,9.97461 c -4.01776,-4.5e-4 -7.84207,1.72533 -10.5,4.73828 -3.88623,4.76175 -11.16259,4.76175 -15.04882,0 -5.42026,-5.97146 -14.75188,-6.14044 -20.38477,-0.36914 l 2.16211,3.76367 c 0.0961,-0.0795 0.19119,-0.16019 0.28516,-0.24218 3.91763,-4.69512 11.13119,-4.69512 15.04882,0 5.56798,6.25393 15.34414,6.25393 20.91211,0 3.91455,-4.62694 11.04835,-4.62694 14.96289,0 5.57346,6.32006 15.42655,6.32006 21,0 3.72091,-4.2991 10.30743,-4.53965 14.33204,-0.52344 l 2.20898,-3.81055 c -5.74839,-4.96613 -14.40841,-4.44178 -19.51563,1.18164 -3.88418,4.69363 -11.08065,4.69363 -14.96484,0 -2.65748,-3.01244 -6.48096,-4.73817 -10.49805,-4.73828 z" /><path
     id="circle6"
     style="color:#000000;display:none;fill:#223263;-inkscape-stroke:none"
     inkscape:label="cluster-mf"
     d="m 174.92578,45.617188 c -67.04862,0 -121.478514,54.429892 -121.478514,121.478512 0,67.04863 54.429894,121.47657 121.478514,121.47657 67.04862,0 121.47656,-54.42794 121.47656,-121.47657 0,-67.04862 -54.42794,-121.478512 -121.47656,-121.478512 z m 0,7 c 63.26555,0 114.47656,51.212972 114.47656,114.478512 0,63.26556 -51.21101,114.47657 -114.47656,114.47657 -63.26555,0 -114.478514,-51.21101 -114.478514,-114.47657 0,-63.26554 51.212964,-114.478512 114.478514,-114.478512 z m 5.20703,247.246092 c -2.64758,6.07299 -4.86655,12.32397 -6.64062,18.70703 -26.57683,1.514 -47.35352,23.50705 -47.35352,50.12696 0,26.61989 20.77669,48.61295 47.35352,50.12695 h 1.78125 c 1.61962,6.07357 3.64479,12.30955 6.07422,18.70703 h 6.15429 c -2.5104,-6.55945 -4.69708,-13.11889 -6.64062,-19.27344 24.63853,-3.57421 42.93674,-24.66419 43,-49.56054 -0.005,-10.16052 -3.11208,-20.07735 -8.90625,-28.42383 L 210.5,341.97461 c 5.54727,7.83031 8.64741,17.13006 8.9082,26.72266 -0.12755,22.77165 -16.89818,42.02234 -39.4375,45.26953 -8.14564,-29.62361 -8.6476,-60.82894 -1.45898,-90.69922 5.9425,0.65412 11.71064,2.41211 17.00781,5.18359 l 1.21485,-4.21289 c -5.35175,-2.8064 -11.16889,-4.61706 -17.16797,-5.34375 1.85028,-6.51714 4.20573,-12.88017 7.04492,-19.03125 z m 23.48438,19.43555 -6.31641,20.65039 20.89258,-5.26367 z" /><path
     id="circle6-6"
     style="color:#000000;display:none;fill:#223263;-inkscape-stroke:none"
     inkscape:label="cluster-met"
     d="m 174.92578,45.617188 c -67.04862,0 -121.478514,54.429892 -121.478514,121.478512 0,67.04863 54.429894,121.47657 121.478514,121.47657 67.04862,0 121.47656,-54.42794 121.47656,-121.47657 0,-67.04862 -54.42794,-121.478512 -121.47656,-121.478512 z m 0,7 c 63.26555,0 114.47656,51.212972 114.47656,114.478512 0,63.26556 -51.21101,114.47657 -114.47656,114.47657 -63.26555,0 -114.478514,-51.21101 -114.478514,-114.47657 0,-63.26554 51.212964,-114.478512 114.478514,-114.478512 z M 152.18555,294.76562 c -0.76215,10e-6 -1.13853,0.10308 -1.20703,0.3086 -0.0913,0.27403 -0.18319,3.65333 -0.0918,7.39844 v 6.9414 h 4.11133 v -14.61523 h -1.91797 c -0.34254,-0.0228 -0.64048,-0.0332 -0.89453,-0.0332 z m -26.05274,10.72071 c -0.715,0.29502 -1.34337,0.7668 -1.82617,1.37109 l -0.0918,0.0899 -1.27929,1.27929 5.02539,5.11524 c 1.71839,1.78906 3.54892,3.46694 5.48047,5.02343 1.11222,-0.72817 2.04829,-1.69494 2.74023,-2.83007 -3.07457,-3.6138 -6.43503,-6.97426 -10.04883,-10.04883 z m 54.16797,0 c -1.97032,1.47778 -3.80445,3.12889 -5.48047,4.93359 h 0.0898 c -1.72867,1.59208 -3.34577,3.3012 -4.83985,5.11524 0.73598,1.16153 1.73745,2.13155 2.92188,2.83007 3.62521,-3.09477 6.98644,-6.48605 10.04883,-10.13867 -0.54923,-1.21664 -1.5236,-2.19101 -2.74024,-2.74023 z m -27.32617,7.6914 c -0.88079,5.8e-4 -1.76071,0.0554 -2.63477,0.16407 h 0.0898 c -9.4725,1.20207 -17.139,8.28184 -19.08985,17.6289 -0.67948,2.85268 -0.67948,5.82506 0,8.67774 0.82911,4.33465 3.0022,8.29816 6.21094,11.32812 1.82688,1.82687 1.91828,1.91721 2.375,1.36914 l 1.55274,-2.1914 1.0957,-1.55274 -1.64258,-1.64453 c -5.01908,-5.24972 -6.12233,-13.11941 -2.74023,-19.54687 5.28938,-9.84703 18.51049,-11.93769 26.58007,-4.20313 l 1.82618,1.55274 1.64453,-1.55274 c 0.68425,-0.59777 1.29764,-1.27212 1.82812,-2.00976 0.18269,-0.6394 -4.20304,-4.20166 -6.94336,-5.48047 -3.12281,-1.67094 -6.61058,-2.54322 -10.15234,-2.53907 z m 33.87891,7.25586 c -0.73508,-0.0317 -1.47395,-0.0286 -2.21485,0.0117 -1.46392,0.0804 -2.91665,0.30211 -4.33789,0.66211 -3.84295,0.98976 -7.32702,3.04769 -10.04883,5.93555 -4.04009,3.88517 -6.4003,9.1965 -6.57617,14.79883 v 1.91797 h -2.2832 c -7.43961,0.14048 -14.24995,4.20573 -17.9043,10.6875 -6.17051,10.7894 -1.72517,24.54815 9.5918,29.6875 4.29316,1.91822 4.20133,1.91796 34.16211,1.91796 10.04823,0.45286 20.11465,0.30024 30.14453,-0.45703 4.90406,-0.97532 9.37736,-3.46785 12.78711,-7.125 7.67321,-7.74791 9.44693,-19.57217 4.38476,-29.23047 -3.16953,-5.96352 -8.59923,-10.40605 -15.07226,-12.33203 -2.3708,-0.68611 -4.84693,-0.93366 -7.30664,-0.73047 h -4.8418 l -0.54883,-1.64453 c -1.36487,-3.21461 -3.38739,-6.10802 -5.9375,-8.49414 -3.90889,-3.42018 -8.85255,-5.38383 -13.99804,-5.60547 z m -68.35938,12.51953 c -1.84096,0.0338 -3.68007,0.13483 -5.51367,0.30274 -0.36537,0.18269 -0.45659,0.91304 -0.36524,2.2832 l 0.0898,2.00977 h 6.94336 c 2.43691,0.23501 4.89433,0.14238 7.30664,-0.27539 0.36961,-0.60055 0.53029,-1.30646 0.45703,-2.00782 0,-1.2788 -0.18195,-1.73573 -0.63867,-2.00976 -2.75217,-0.25192 -5.51608,-0.35298 -8.2793,-0.30274 z m 14.94727,19.30079 c -1.93563,1.55245 -3.76645,3.23125 -5.48047,5.02539 l -5.02539,5.11523 0.91406,1.1875 c 1.82688,2.2836 2.10154,2.19143 7.2168,-2.92383 2.46628,-2.46627 4.7485,-4.74985 4.83984,-5.11523 0.27403,-0.45672 0.001,-0.91319 -0.91211,-1.91797 -0.4104,-0.5657 -0.94059,-1.03386 -1.55273,-1.37109 z m 37.92773,36.06836 c -0.0408,-0.003 -0.0771,0.002 -0.11133,0.0137 h 0.0898 c -1.11647,1.14659 -2.15401,2.36749 -3.10547,3.65429 l -2.74024,3.47071 3.19727,2.55664 5.8457,-7.30664 -1.46094,-1.1875 c -0.9591,-0.79926 -1.42885,-1.17994 -1.71484,-1.20117 z m 39.34375,0 c -0.0344,-0.003 -0.0631,0.002 -0.0859,0.0137 -1.08559,1.14947 -2.09305,2.3703 -3.01562,3.65429 l -2.74024,3.47071 3.19727,2.55664 5.8457,-7.30664 -1.55273,-1.1875 c -0.87918,-0.79926 -1.40741,-1.17994 -1.64844,-1.20117 z m -21.87891,7.40039 c -0.0143,0.002 -0.0276,0.006 -0.0391,0.0117 h 0.0879 c -0.0137,-7.2e-4 -0.0371,-0.0135 -0.0488,-0.0117 z m 0.0527,0.0117 c -1.11647,1.14658 -2.15401,2.36748 -3.10547,3.65429 l -2.74023,3.47071 3.19726,2.55664 5.8457,-7.30664 -1.55273,-1.1875 c -0.88639,-0.80582 -1.40626,-1.17202 -1.64453,-1.1875 z" /><path
     id="circle6-2"
     style="color:#000000;display:none;fill:#223263;-inkscape-stroke:none"
     inkscape:label="cluster-hyd"
     d="m 174.92578,45.617188 c -67.04862,0 -121.478514,54.429892 -121.478514,121.478512 0,67.04863 54.429894,121.47657 121.478514,121.47657 67.04862,0 121.47656,-54.42794 121.47656,-121.47657 0,-67.04862 -54.42794,-121.478512 -121.47656,-121.478512 z m 0,7 c 63.26555,0 114.47656,51.212972 114.47656,114.478512 0,63.26556 -51.21101,114.47657 -114.47656,114.47657 -63.26555,0 -114.478514,-51.21101 -114.478514,-114.47657 0,-63.26554 51.212964,-114.478512 114.478514,-114.478512 z M 130.29883,298.06836 c -0.29921,-0.002 -0.60296,0.0294 -0.91016,0.0996 -1.78521,0.40801 -3.05063,1.99689 -3.04883,3.82812 v 101.58203 c -9.9e-4,1.19389 0.54177,2.32326 1.47461,3.06836 2.57021,2.05292 6.37381,0.22108 6.3711,-3.06836 v -19.54687 h 15.27734 c 4.09368,-1.08626 4.09368,-6.89616 0,-7.98242 h -15.27734 v -37.43945 h 15.27734 c 4.50504,-0.83271 4.50504,-7.28839 0,-8.1211 h -15.27734 v -28.49219 c 0.002,-2.2058 -1.79224,-3.91182 -3.88672,-3.92773 z m 61.83398,9.8457 -0.82617,0.96485 c -1.2388,1.65172 -30.69336,42.11796 -30.69336,60.01171 -0.38509,17.81332 13.70778,32.58383 31.51953,33.03516 17.81252,-0.45027 31.90656,-15.2211 31.52149,-33.03516 0,-17.89375 -29.59519,-58.35999 -30.83399,-60.01171 z" /><path
     id="circle6-9"
     style="color:#000000;display:none;fill:#223263;-inkscape-stroke:none"
     inkscape:label="cluster-cam"
     d="m 174.92578,45.617188 c -67.04862,0 -121.478514,54.429892 -121.478514,121.478512 0,67.04863 54.429894,121.47657 121.478514,121.47657 67.04862,0 121.47656,-54.42794 121.47656,-121.47657 0,-67.04862 -54.42794,-121.478512 -121.47656,-121.478512 z m 0,7 c 63.26555,0 114.47656,51.212972 114.47656,114.478512 0,63.26556 -51.21101,114.47657 -114.47656,114.47657 -63.26555,0 -114.478514,-51.21101 -114.478514,-114.47657 0,-63.26554 51.212964,-114.478512 114.478514,-114.478512 z M 117.90039,306.9375 c -4.38155,3e-4 -7.94874,3.52308 -8.00391,7.9043 v 48.33203 c 6.6e-4,4.42015 3.58376,8.00324 8.00391,8.0039 h 70.54492 c 4.42092,4.2e-4 8.0052,-3.58299 8.00586,-8.0039 v -48.23242 c -3e-4,-4.38156 -3.52308,-7.94874 -7.90429,-8.00391 z m 118.67578,6.70312 -33.12109,14.10938 c -2.13538,0.31041 -3.64033,2.25769 -3.40235,4.40234 v 11.60743 c -0.2391,2.14537 1.26613,4.09387 3.40235,4.40429 l 33.12109,16.31055 c 2.17642,-0.26146 3.73762,-2.22494 3.50195,-4.4043 v -42.02539 c 0.23567,-2.17936 -1.32553,-4.14284 -3.50195,-4.4043 z" /><path
     id="path8353"
     style="color:#000000;display:none;fill:#008080;stroke-miterlimit:8;-inkscape-stroke:none"
     d="m 174.92578,38.787109 c -70.74423,0 -128.308592,57.564369 -128.308592,128.308591 0,70.74423 57.564362,128.3086 128.308592,128.3086 70.74423,0 128.30664,-57.56437 128.30664,-128.3086 0,-70.744222 -57.56241,-128.308591 -128.30664,-128.308591 z m 0,20 c 26.35699,0 50.47247,9.360626 69.22656,24.939453 L 91.554688,236.32227 c -15.578337,-18.75438 -24.937501,-42.87004 -24.9375,-69.22657 0,-59.93544 48.373142,-108.308591 108.308592,-108.308591 z m 83.36914,39.082032 c 15.57795,18.754379 24.9375,42.869999 24.9375,69.226559 0,59.93545 -48.37119,108.3086 -108.30664,108.3086 -26.35752,0 -50.47384,-9.36006 -69.22851,-24.93946 z"
     inkscape:label="disabled" /></svg>
