<?xml version="1.0" standalone="no"?>
<!DOCTYPE svg PUBLIC "-//W3C//DTD SVG 20010904//EN"
 "http://www.w3.org/TR/2001/REC-SVG-20010904/DTD/svg10.dtd">
<svg version="1.0" xmlns="http://www.w3.org/2000/svg"
 width="700.000000pt" height="700.000000pt" viewBox="0 0 700.000000 700.000000"
 preserveAspectRatio="xMidYMid meet">
<metadata>
Created by potrace 1.14, written by Peter Selinger 2001-2017
</metadata>
<g transform="translate(0.000000,700.000000) scale(0.100000,-0.100000)"
fill="#000000" stroke="none">
<path d="M3508 6995 c-1 -1 -40 -5 -85 -9 -79 -5 -118 -10 -193 -21 -19 -3
-49 -8 -66 -10 -27 -4 -82 -15 -214 -41 -402 -81 -940 -304 -1364 -567 -131
-81 -341 -236 -466 -343 -48 -42 -310 -303 -344 -344 -7 -8 -32 -40 -57 -70
-24 -30 -47 -57 -50 -60 -24 -19 -170 -255 -217 -350 -70 -142 -83 -174 -116
-280 -64 -215 -83 -403 -62 -634 19 -207 92 -397 194 -508 162 -174 396 -256
783 -272 l67 -3 -8 26 c-4 14 -19 50 -34 80 -34 66 -61 150 -71 216 -20 140
-22 188 -19 400 2 127 6 243 8 260 5 28 12 81 21 155 3 19 7 46 10 60 3 14 7
37 10 52 42 227 151 510 273 706 165 266 379 481 649 655 97 62 278 158 360
190 l42 16 -35 -97 c-19 -53 -42 -117 -50 -142 -9 -25 -20 -54 -24 -65 -5 -11
-23 -60 -40 -110 -17 -49 -40 -112 -51 -140 -10 -27 -39 -107 -64 -177 -57
-163 -120 -337 -200 -558 -35 -96 -107 -294 -159 -440 -52 -146 -143 -398
-201 -560 -59 -162 -149 -414 -202 -560 -52 -146 -110 -307 -128 -358 -19 -52
-36 -96 -39 -100 -3 -3 -6 -12 -6 -20 0 -8 -6 -28 -14 -45 -8 -18 -62 -167
-121 -332 -59 -165 -113 -315 -120 -332 l-14 -32 172 1 c259 2 438 -20 647
-82 327 -97 732 -300 1055 -529 139 -98 525 -388 648 -488 449 -360 863 -660
1157 -838 341 -207 620 -294 928 -290 147 2 156 4 247 35 282 97 527 425 669
894 43 140 86 338 102 471 3 28 10 69 14 92 4 24 4 43 0 43 -3 0 -40 -12 -81
-26 -72 -26 -188 -60 -239 -70 -14 -3 -32 -7 -41 -10 -9 -2 -32 -7 -50 -9 -19
-3 -45 -7 -59 -10 -100 -21 -497 -28 -630 -12 -180 22 -505 100 -572 137 -10
6 -22 10 -27 10 -11 0 -284 113 -386 160 -285 131 -559 270 -895 452 -220 120
-611 312 -740 363 -63 26 -180 66 -259 90 -79 25 -145 46 -148 48 -2 2 2 17 8
33 11 30 93 261 180 509 26 77 57 165 68 195 42 118 203 576 205 585 2 6 6 18
9 28 4 9 10 25 13 35 31 86 131 374 223 637 62 176 126 358 142 405 66 183 95
267 319 905 314 895 342 976 337 982 -3 2 -27 6 -53 9 -59 6 -541 14 -546 9z"/>
<path d="M6409 6626 c-4 -4 -26 -7 -139 -22 -25 -3 -56 -7 -70 -10 -14 -2 -63
-9 -110 -14 -116 -15 -130 -17 -250 -34 -58 -9 -125 -18 -150 -21 -42 -5 -91
-12 -150 -20 -31 -5 -99 -14 -147 -20 -21 -2 -103 -13 -183 -24 -80 -12 -165
-23 -189 -26 -25 -3 -46 -6 -47 -8 -3 -2 -130 -264 -257 -527 -41 -85 -107
-222 -147 -305 -40 -82 -101 -208 -135 -280 -34 -71 -96 -200 -137 -285 -42
-85 -102 -211 -136 -280 -33 -69 -101 -210 -151 -313 -50 -104 -93 -199 -95
-210 -32 -158 -33 -165 -56 -337 -17 -132 -21 -478 -6 -555 3 -16 8 -43 11
-60 3 -16 7 -41 10 -55 3 -14 7 -37 10 -51 9 -46 57 -183 85 -240 132 -269
360 -438 680 -504 91 -19 312 -25 410 -12 96 13 212 48 306 92 274 127 460
338 547 619 31 97 40 139 62 279 3 15 2 27 0 27 -3 0 -37 -9 -77 -19 -95 -26
-134 -31 -226 -32 -196 -1 -308 55 -374 189 -31 63 -33 73 -35 187 -3 211 20
285 232 750 12 28 32 73 44 100 12 28 26 59 31 70 5 11 46 103 90 205 45 102
87 199 95 215 7 17 39 89 70 160 31 72 63 144 70 160 7 17 24 55 38 85 13 30
33 75 44 100 20 43 92 208 218 495 31 72 65 148 75 170 10 22 37 83 60 135 69
157 72 164 86 192 8 15 10 29 5 32 -4 3 -10 4 -12 2z"/>
</g>
</svg>
